<mxfile host="app.diagrams.net" agent="Mozilla/5.0 (Windows NT 10.0; Win64; x64) AppleWebKit/537.36 (KHTML, like Gecko) Chrome/138.0.0.0 Safari/537.36" version="28.0.7">
  <diagram name="ページ1" id="at06W_lwVpKnt5aKk29q">
    <mxGraphModel dx="968" dy="906" grid="1" gridSize="10" guides="1" tooltips="1" connect="1" arrows="1" fold="1" page="1" pageScale="1" pageWidth="1654" pageHeight="1169" math="0" shadow="0">
      <root>
        <mxCell id="0" />
        <mxCell id="1" parent="0" />
        <mxCell id="e3cjcUw239tZRnHKXQpr-1" value="神社と参拝" style="text;html=1;align=center;verticalAlign=middle;whiteSpace=wrap;rounded=0;fillColor=#dae8fc;strokeColor=#6c8ebf;" vertex="1" parent="1">
          <mxGeometry x="80" y="40" width="160" height="40" as="geometry" />
        </mxCell>
        <mxCell id="e3cjcUw239tZRnHKXQpr-2" value="" style="rounded=0;whiteSpace=wrap;html=1;dashed=1;dashPattern=12 12;" vertex="1" parent="1">
          <mxGeometry x="120" y="120" width="360" height="430" as="geometry" />
        </mxCell>
        <mxCell id="e3cjcUw239tZRnHKXQpr-4" value="" style="shape=flexArrow;endArrow=classic;html=1;rounded=0;entryX=0.6;entryY=0.9;entryDx=0;entryDy=0;entryPerimeter=0;" edge="1" parent="1">
          <mxGeometry width="50" height="50" relative="1" as="geometry">
            <mxPoint x="299.5" y="620" as="sourcePoint" />
            <mxPoint x="300.5" y="560" as="targetPoint" />
          </mxGeometry>
        </mxCell>
        <mxCell id="e3cjcUw239tZRnHKXQpr-12" value="" style="rounded=0;whiteSpace=wrap;html=1;" vertex="1" parent="1">
          <mxGeometry x="280" y="250" width="40" height="300" as="geometry" />
        </mxCell>
        <mxCell id="e3cjcUw239tZRnHKXQpr-6" value="参道" style="text;html=1;align=center;verticalAlign=middle;whiteSpace=wrap;rounded=0;" vertex="1" parent="1">
          <mxGeometry x="270" y="340" width="60" height="30" as="geometry" />
        </mxCell>
        <mxCell id="e3cjcUw239tZRnHKXQpr-10" value="" style="rounded=0;whiteSpace=wrap;html=1;" vertex="1" parent="1">
          <mxGeometry x="190" y="140" width="220" height="100" as="geometry" />
        </mxCell>
        <mxCell id="e3cjcUw239tZRnHKXQpr-9" value="本殿" style="rounded=0;whiteSpace=wrap;html=1;" vertex="1" parent="1">
          <mxGeometry x="240" y="150" width="120" height="40" as="geometry" />
        </mxCell>
        <mxCell id="e3cjcUw239tZRnHKXQpr-11" value="拝殿" style="rounded=0;whiteSpace=wrap;html=1;" vertex="1" parent="1">
          <mxGeometry x="240" y="210" width="120" height="40" as="geometry" />
        </mxCell>
        <mxCell id="e3cjcUw239tZRnHKXQpr-5" value="鳥居" style="rounded=1;whiteSpace=wrap;html=1;" vertex="1" parent="1">
          <mxGeometry x="240" y="420" width="120" height="40" as="geometry" />
        </mxCell>
        <mxCell id="e3cjcUw239tZRnHKXQpr-7" value="阿&lt;div&gt;あ&lt;/div&gt;" style="ellipse;whiteSpace=wrap;html=1;aspect=fixed;" vertex="1" parent="1">
          <mxGeometry x="200" y="260" width="70" height="70" as="geometry" />
        </mxCell>
        <mxCell id="e3cjcUw239tZRnHKXQpr-8" value="吽&lt;div&gt;うん&lt;/div&gt;" style="ellipse;whiteSpace=wrap;html=1;aspect=fixed;" vertex="1" parent="1">
          <mxGeometry x="330" y="260" width="70" height="70" as="geometry" />
        </mxCell>
        <mxCell id="e3cjcUw239tZRnHKXQpr-3" value="鳥居" style="rounded=1;whiteSpace=wrap;html=1;" vertex="1" parent="1">
          <mxGeometry x="240" y="510" width="120" height="40" as="geometry" />
        </mxCell>
        <mxCell id="e3cjcUw239tZRnHKXQpr-15" value="灯篭" style="ellipse;whiteSpace=wrap;html=1;aspect=fixed;" vertex="1" parent="1">
          <mxGeometry x="330" y="340" width="70" height="70" as="geometry" />
        </mxCell>
        <mxCell id="e3cjcUw239tZRnHKXQpr-17" value="灯篭" style="ellipse;whiteSpace=wrap;html=1;aspect=fixed;" vertex="1" parent="1">
          <mxGeometry x="200" y="340" width="70" height="70" as="geometry" />
        </mxCell>
        <mxCell id="e3cjcUw239tZRnHKXQpr-18" value="手水舎" style="rounded=1;whiteSpace=wrap;html=1;" vertex="1" parent="1">
          <mxGeometry x="370" y="460" width="80" height="40" as="geometry" />
        </mxCell>
      </root>
    </mxGraphModel>
  </diagram>
</mxfile>
